<svg xmlns="http://www.w3.org/2000/svg" viewBox="0 0 512 512" fill="none">
  <defs>
    <linearGradient id="brass" x1="0" y1="0" x2="1" y2="1">
      <stop offset="0%" stop-color="#ddb477"/>
      <stop offset="50%" stop-color="#c79b5c"/>
      <stop offset="100%" stop-color="#8c6c32"/>
    </linearGradient>
    <radialGradient id="blade-fill" cx="256" cy="256" r="190" gradientUnits="userSpaceOnUse">
      <stop offset="0%" stop-color="#6b5225"/>
      <stop offset="45%" stop-color="#c79b5c"/>
      <stop offset="100%" stop-color="#ddb477"/>
    </radialGradient>
    <radialGradient id="glow" cx="50%" cy="50%" r="50%">
      <stop offset="0%" stop-color="#c79b5c" stop-opacity="0.15"/>
      <stop offset="100%" stop-color="#c79b5c" stop-opacity="0"/>
    </radialGradient>
    <linearGradient id="ring" x1="0" y1="0" x2="0" y2="1">
      <stop offset="0%" stop-color="#3d3540"/>
      <stop offset="50%" stop-color="#1f2533"/>
      <stop offset="100%" stop-color="#11151c"/>
    </linearGradient>
  </defs>

  <!-- Background glow -->
  <circle cx="256" cy="256" r="240" fill="url(#glow)"/>

  <!-- Outer housing ring -->
  <circle cx="256" cy="256" r="220" fill="url(#ring)" stroke="#c79b5c" stroke-opacity="0.2" stroke-width="2"/>
  <circle cx="256" cy="256" r="218" fill="none" stroke="rgba(255,255,255,0.04)" stroke-width="1"/>

  <!-- Inner dark field -->
  <circle cx="256" cy="256" r="190" fill="#08090c"/>

  <!--
    6 triangular aperture blades radiating from center (256,256).
    Each triangle: tip at R=178, base points at R=55, spread ±24°.
    Computed via: point(r, a) = (cx + r*sin(a), cy - r*cos(a))
    Center circle (R=80) overlays bases for clean aperture look.
  -->
  <polygon points="256,78 278.4,205.8 233.6,205.8" fill="url(#blade-fill)" opacity="0.88"/>
  <polygon points="410.2,167 310.7,250.3 288.3,211.5" fill="url(#blade-fill)" opacity="0.88"/>
  <polygon points="410.2,345 288.3,300.5 310.7,261.7" fill="url(#blade-fill)" opacity="0.88"/>
  <polygon points="256,434 233.6,306.2 278.4,306.2" fill="url(#blade-fill)" opacity="0.88"/>
  <polygon points="101.8,345 201.3,261.7 223.7,300.5" fill="url(#blade-fill)" opacity="0.88"/>
  <polygon points="101.8,167 223.7,211.5 201.3,250.3" fill="url(#blade-fill)" opacity="0.88"/>

  <!-- Inner ring — lens element -->
  <circle cx="256" cy="256" r="100" fill="none" stroke="url(#brass)" stroke-width="2.5" stroke-opacity="0.5"/>

  <!-- Center circle — covers triangle bases for clean aperture illusion -->
  <circle cx="256" cy="256" r="80" fill="#08090c"/>
  <circle cx="256" cy="256" r="80" fill="none" stroke="#c79b5c" stroke-width="1.5" stroke-opacity="0.3"/>

  <!-- Inner accent ring -->
  <circle cx="256" cy="256" r="65" fill="none" stroke="#c79b5c" stroke-width="0.75" stroke-opacity="0.15"/>

  <!-- Lens flare highlight -->
  <circle cx="242" cy="242" r="4" fill="#c79b5c" opacity="0.1"/>

  <!-- Machined tick marks around outer ring -->
  <g stroke="#c79b5c" stroke-opacity="0.15" stroke-width="1.5">
    <line x1="256" y1="38" x2="256" y2="52"/>
    <line x1="256" y1="460" x2="256" y2="474"/>
    <line x1="38" y1="256" x2="52" y2="256"/>
    <line x1="460" y1="256" x2="474" y2="256"/>
    <line x1="102.1" y1="102.1" x2="112" y2="112"/>
    <line x1="409.9" y1="102.1" x2="400" y2="112"/>
    <line x1="102.1" y1="409.9" x2="112" y2="400"/>
    <line x1="409.9" y1="409.9" x2="400" y2="400"/>
  </g>
</svg>
